<svg xmlns="http://www.w3.org/2000/svg" xmlns:xlink="http://www.w3.org/1999/xlink" width="500" zoomAndPan="magnify" viewBox="0 0 375 374.999991" height="500" preserveAspectRatio="xMidYMid meet" version="1.0"><defs><g/><clipPath id="28b42a210e"><path d="M 53 153.902344 L 192 153.902344 L 192 206.34375 L 53 206.34375 Z M 53 153.902344 " clip-rule="nonzero"/></clipPath><clipPath id="f9f97b6331"><path d="M 90.285156 153.902344 L 185.808594 153.902344 C 187.957031 153.902344 189.941406 155.054688 191.007812 156.925781 C 192.070312 158.792969 192.050781 161.085938 190.957031 162.9375 L 170.601562 197.308594 C 167.285156 202.90625 161.261719 206.34375 154.753906 206.34375 L 59.234375 206.34375 C 57.082031 206.34375 55.097656 205.1875 54.035156 203.320312 C 52.96875 201.453125 52.988281 199.15625 54.082031 197.308594 L 74.4375 162.9375 C 77.753906 157.335938 83.777344 153.902344 90.285156 153.902344 Z M 90.285156 153.902344 " clip-rule="nonzero"/></clipPath></defs><g clip-path="url(#28b42a210e)"><g clip-path="url(#f9f97b6331)"><path fill="#fbd016" d="M 48.734375 153.902344 L 196.21875 153.902344 L 196.21875 206.34375 L 48.734375 206.34375 Z M 48.734375 153.902344 " fill-opacity="1" fill-rule="nonzero"/></g></g><g fill="#fdfefd" fill-opacity="1"><g transform="translate(62.064214, 197.516182)"><g><path d="M 17.578125 -31.171875 C 19.867188 -31.171875 22.125 -30.695312 24.34375 -29.75 C 26.570312 -28.8125 28.46875 -27.550781 30.03125 -25.96875 L 25.484375 -20.578125 C 24.484375 -21.816406 23.28125 -22.796875 21.875 -23.515625 C 20.476562 -24.234375 19.085938 -24.59375 17.703125 -24.59375 C 15.265625 -24.59375 13.21875 -23.726562 11.5625 -22 C 9.914062 -20.28125 9.09375 -18.15625 9.09375 -15.625 C 9.09375 -13.039062 9.914062 -10.878906 11.5625 -9.140625 C 13.21875 -7.398438 15.265625 -6.53125 17.703125 -6.53125 C 19.003906 -6.53125 20.351562 -6.851562 21.75 -7.5 C 23.144531 -8.15625 24.390625 -9.039062 25.484375 -10.15625 L 30.078125 -5.296875 C 28.390625 -3.585938 26.40625 -2.21875 24.125 -1.1875 C 21.84375 -0.15625 19.570312 0.359375 17.3125 0.359375 C 12.65625 0.359375 8.78125 -1.15625 5.6875 -4.1875 C 2.601562 -7.226562 1.0625 -11.015625 1.0625 -15.546875 C 1.0625 -19.984375 2.632812 -23.695312 5.78125 -26.6875 C 8.9375 -29.675781 12.867188 -31.171875 17.578125 -31.171875 Z M 17.578125 -31.171875 "/></g></g></g><g fill="#fdfefd" fill-opacity="1"><g transform="translate(90.106044, 197.516182)"><g><path d="M 14.078125 -24.0625 C 17.972656 -24.0625 21.109375 -22.945312 23.484375 -20.71875 C 25.867188 -18.5 27.0625 -15.566406 27.0625 -11.921875 C 27.0625 -8.273438 25.867188 -5.332031 23.484375 -3.09375 C 21.109375 -0.851562 17.972656 0.265625 14.078125 0.265625 C 10.171875 0.265625 7.023438 -0.851562 4.640625 -3.09375 C 2.253906 -5.332031 1.0625 -8.273438 1.0625 -11.921875 C 1.0625 -15.566406 2.253906 -18.5 4.640625 -20.71875 C 7.023438 -22.945312 10.171875 -24.0625 14.078125 -24.0625 Z M 14.078125 -18.015625 C 12.492188 -18.015625 11.207031 -17.441406 10.21875 -16.296875 C 9.238281 -15.148438 8.75 -13.660156 8.75 -11.828125 C 8.75 -9.972656 9.238281 -8.476562 10.21875 -7.34375 C 11.207031 -6.21875 12.492188 -5.65625 14.078125 -5.65625 C 15.640625 -5.65625 16.914062 -6.21875 17.90625 -7.34375 C 18.894531 -8.476562 19.390625 -9.972656 19.390625 -11.828125 C 19.390625 -13.660156 18.894531 -15.148438 17.90625 -16.296875 C 16.914062 -17.441406 15.640625 -18.015625 14.078125 -18.015625 Z M 14.078125 -18.015625 "/></g></g></g><g fill="#fdfefd" fill-opacity="1"><g transform="translate(115.71903, 197.516182)"><g><path d="M 13.734375 -24.15625 C 17.003906 -24.15625 19.539062 -23.394531 21.34375 -21.875 C 23.15625 -20.363281 24.078125 -18.253906 24.109375 -15.546875 L 24.109375 0 L 16.640625 0 L 16.640625 -2.734375 C 15.085938 -0.671875 12.660156 0.359375 9.359375 0.359375 C 6.859375 0.359375 4.867188 -0.332031 3.390625 -1.71875 C 1.921875 -3.101562 1.1875 -4.898438 1.1875 -7.109375 C 1.1875 -9.378906 1.972656 -11.140625 3.546875 -12.390625 C 5.128906 -13.640625 7.390625 -14.28125 10.328125 -14.3125 L 16.609375 -14.3125 L 16.609375 -14.65625 C 16.609375 -15.832031 16.21875 -16.75 15.4375 -17.40625 C 14.65625 -18.070312 13.5 -18.40625 11.96875 -18.40625 C 9.820312 -18.40625 7.453125 -17.742188 4.859375 -16.421875 L 2.6875 -21.453125 C 6.550781 -23.253906 10.234375 -24.15625 13.734375 -24.15625 Z M 11.703125 -4.8125 C 12.910156 -4.8125 13.96875 -5.113281 14.875 -5.71875 C 15.789062 -6.320312 16.367188 -7.109375 16.609375 -8.078125 L 16.609375 -10.203125 L 11.796875 -10.203125 C 9.492188 -10.203125 8.34375 -9.347656 8.34375 -7.640625 C 8.34375 -6.753906 8.632812 -6.0625 9.21875 -5.5625 C 9.8125 -5.0625 10.640625 -4.8125 11.703125 -4.8125 Z M 11.703125 -4.8125 "/></g></g></g><g fill="#fdfefd" fill-opacity="1"><g transform="translate(139.698072, 197.516182)"><g><path d="M 11.5625 -24.15625 C 15.070312 -24.15625 18.34375 -23.253906 21.375 -21.453125 L 18.765625 -16.515625 C 15.816406 -18.109375 13.316406 -18.90625 11.265625 -18.90625 C 9.703125 -18.90625 8.921875 -18.359375 8.921875 -17.265625 C 8.921875 -16.671875 9.347656 -16.175781 10.203125 -15.78125 C 11.054688 -15.382812 12.097656 -15.023438 13.328125 -14.703125 C 14.566406 -14.378906 15.796875 -13.972656 17.015625 -13.484375 C 18.242188 -13.003906 19.285156 -12.234375 20.140625 -11.171875 C 20.992188 -10.109375 21.421875 -8.8125 21.421875 -7.28125 C 21.421875 -4.894531 20.492188 -3.03125 18.640625 -1.6875 C 16.785156 -0.351562 14.367188 0.3125 11.390625 0.3125 C 7.179688 0.3125 3.617188 -0.804688 0.703125 -3.046875 L 3.140625 -7.90625 C 5.929688 -5.9375 8.738281 -4.953125 11.5625 -4.953125 C 13.300781 -4.953125 14.171875 -5.492188 14.171875 -6.578125 C 14.171875 -7.191406 13.75 -7.707031 12.90625 -8.125 C 12.070312 -8.539062 11.050781 -8.910156 9.84375 -9.234375 C 8.632812 -9.554688 7.425781 -9.957031 6.21875 -10.4375 C 5.019531 -10.925781 4 -11.6875 3.15625 -12.71875 C 2.320312 -13.75 1.90625 -15.046875 1.90625 -16.609375 C 1.90625 -18.984375 2.800781 -20.832031 4.59375 -22.15625 C 6.382812 -23.488281 8.707031 -24.15625 11.5625 -24.15625 Z M 11.5625 -24.15625 "/></g></g></g><g fill="#fdfefd" fill-opacity="1"><g transform="translate(159.835127, 197.516182)"><g><path d="M 16.90625 -6.578125 L 18.40625 -1.28125 C 16.550781 -0.1875 14.429688 0.359375 12.046875 0.359375 C 9.691406 0.359375 7.785156 -0.296875 6.328125 -1.609375 C 4.878906 -2.921875 4.15625 -4.785156 4.15625 -7.203125 L 4.15625 -17.703125 L 0.84375 -17.703125 L 0.84375 -22.703125 L 4.15625 -22.703125 L 4.15625 -29.3125 L 11.75 -29.3125 L 11.75 -22.734375 L 17.96875 -22.734375 L 17.96875 -17.703125 L 11.75 -17.703125 L 11.75 -8.390625 C 11.75 -7.472656 11.929688 -6.800781 12.296875 -6.375 C 12.660156 -5.945312 13.210938 -5.75 13.953125 -5.78125 C 14.660156 -5.78125 15.644531 -6.046875 16.90625 -6.578125 Z M 16.90625 -6.578125 "/></g></g></g><g fill="#ce1126" fill-opacity="1"><g transform="translate(185.809504, 197.516182)"><g><path d="M 16.90625 -6.578125 L 18.40625 -1.28125 C 16.550781 -0.1875 14.429688 0.359375 12.046875 0.359375 C 9.691406 0.359375 7.785156 -0.296875 6.328125 -1.609375 C 4.878906 -2.921875 4.15625 -4.785156 4.15625 -7.203125 L 4.15625 -17.703125 L 0.84375 -17.703125 L 0.84375 -22.703125 L 4.15625 -22.703125 L 4.15625 -29.3125 L 11.75 -29.3125 L 11.75 -22.734375 L 17.96875 -22.734375 L 17.96875 -17.703125 L 11.75 -17.703125 L 11.75 -8.390625 C 11.75 -7.472656 11.929688 -6.800781 12.296875 -6.375 C 12.660156 -5.945312 13.210938 -5.75 13.953125 -5.78125 C 14.660156 -5.78125 15.644531 -6.046875 16.90625 -6.578125 Z M 16.90625 -6.578125 "/></g></g></g><g fill="#ce1126" fill-opacity="1"><g transform="translate(202.502018, 197.516182)"><g><path d="M 13.46875 -24.0625 C 17.59375 -24.0625 20.691406 -22.796875 22.765625 -20.265625 C 24.835938 -17.734375 25.742188 -14.257812 25.484375 -9.84375 L 8.75 -9.84375 C 9.125 -8.4375 9.796875 -7.347656 10.765625 -6.578125 C 11.742188 -5.816406 12.9375 -5.4375 14.34375 -5.4375 C 16.53125 -5.4375 18.429688 -6.242188 20.046875 -7.859375 L 24.0625 -3.9375 C 21.5 -1.132812 18.039062 0.265625 13.6875 0.265625 C 9.832031 0.265625 6.765625 -0.835938 4.484375 -3.046875 C 2.203125 -5.253906 1.0625 -8.179688 1.0625 -11.828125 C 1.0625 -15.515625 2.203125 -18.472656 4.484375 -20.703125 C 6.765625 -22.941406 9.757812 -24.0625 13.46875 -24.0625 Z M 8.609375 -13.953125 L 18.140625 -13.953125 C 18.140625 -15.390625 17.71875 -16.550781 16.875 -17.4375 C 16.039062 -18.320312 14.9375 -18.765625 13.5625 -18.765625 C 12.257812 -18.765625 11.164062 -18.328125 10.28125 -17.453125 C 9.40625 -16.585938 8.847656 -15.421875 8.609375 -13.953125 Z M 8.609375 -13.953125 "/></g></g></g><g fill="#ce1126" fill-opacity="1"><g transform="translate(226.569385, 197.516182)"><g><path d="M 13.421875 -24.0625 C 15.773438 -24.0625 17.867188 -23.597656 19.703125 -22.671875 C 21.546875 -21.742188 22.984375 -20.425781 24.015625 -18.71875 L 18.546875 -15.40625 C 17.367188 -17.0625 15.765625 -17.890625 13.734375 -17.890625 C 12.265625 -17.890625 11.066406 -17.335938 10.140625 -16.234375 C 9.210938 -15.128906 8.75 -13.675781 8.75 -11.875 C 8.75 -10.050781 9.203125 -8.585938 10.109375 -7.484375 C 11.023438 -6.378906 12.234375 -5.828125 13.734375 -5.828125 C 15.972656 -5.828125 17.59375 -6.722656 18.59375 -8.515625 L 24.15625 -5.25 C 23.1875 -3.488281 21.765625 -2.128906 19.890625 -1.171875 C 18.023438 -0.210938 15.835938 0.265625 13.328125 0.265625 C 9.648438 0.265625 6.6875 -0.84375 4.4375 -3.0625 C 2.1875 -5.289062 1.0625 -8.210938 1.0625 -11.828125 C 1.0625 -15.484375 2.203125 -18.4375 4.484375 -20.6875 C 6.765625 -22.9375 9.742188 -24.0625 13.421875 -24.0625 Z M 13.421875 -24.0625 "/></g></g></g><g fill="#ce1126" fill-opacity="1"><g transform="translate(248.870315, 197.516182)"><g><path d="M 18.90625 -24.15625 C 21.519531 -24.15625 23.617188 -23.320312 25.203125 -21.65625 C 26.796875 -19.988281 27.59375 -17.773438 27.59375 -15.015625 L 27.59375 0 L 19.953125 0 L 19.953125 -12.890625 C 19.953125 -14.273438 19.578125 -15.367188 18.828125 -16.171875 C 18.078125 -16.984375 17.054688 -17.390625 15.765625 -17.390625 C 14.296875 -17.390625 13.117188 -16.859375 12.234375 -15.796875 C 11.347656 -14.742188 10.90625 -13.394531 10.90625 -11.75 L 10.90625 0 L 3.265625 0 L 3.265625 -32.765625 L 10.90625 -32.765625 L 10.90625 -19.875 C 12.582031 -22.664062 15.25 -24.09375 18.90625 -24.15625 Z M 18.90625 -24.15625 "/></g></g></g><g fill="#000000" fill-opacity="1"><g transform="translate(185.825911, 215.071303)"><g><path d="M 0.75 -5.277344 L 0.75 -4.765625 L 3.234375 -2.285156 L 3.984375 -3.023438 L 1.984375 -5.023438 L 3.984375 -7.023438 L 3.234375 -7.757812 Z M 0.75 -5.277344 "/></g></g></g><g fill="#000000" fill-opacity="1"><g transform="translate(190.546964, 215.071303)"><g><path d="M 5.023438 -10.601562 L 0.75 0.375 L 1.878906 0.375 L 6.148438 -10.601562 Z M 5.023438 -10.601562 "/></g></g></g><g fill="#000000" fill-opacity="1"><g transform="translate(197.448129, 215.071303)"><g><path d="M 1.609375 -7.519531 C 1.609375 -7.039062 1.683594 -6.632812 1.863281 -6.316406 C 2.03125 -5.984375 2.253906 -5.714844 2.542969 -5.503906 C 2.828125 -5.292969 3.15625 -5.113281 3.535156 -4.992188 C 3.910156 -4.855469 4.300781 -4.738281 4.722656 -4.648438 C 5.050781 -4.554688 5.382812 -4.464844 5.683594 -4.375 C 5.984375 -4.285156 6.226562 -4.179688 6.4375 -4.058594 C 6.648438 -3.925781 6.796875 -3.773438 6.886719 -3.625 C 6.976562 -3.457031 7.023438 -3.25 7.023438 -3.007812 C 7.023438 -2.527344 6.976562 -2.148438 6.902344 -1.851562 C 6.8125 -1.550781 6.675781 -1.308594 6.496094 -1.128906 C 6.316406 -0.949219 6.058594 -0.828125 5.746094 -0.765625 C 5.414062 -0.707031 5.023438 -0.675781 4.542969 -0.675781 C 3.894531 -0.675781 3.382812 -0.738281 2.992188 -0.871094 C 2.601562 -0.992188 2.347656 -1.128906 2.210938 -1.277344 L 1.953125 -1.535156 L 1.203125 -0.796875 L 1.472656 -0.527344 C 1.773438 -0.226562 2.179688 0 2.691406 0.148438 C 3.203125 0.300781 3.820312 0.375 4.542969 0.375 C 5.144531 0.375 5.667969 0.332031 6.121094 0.210938 C 6.570312 0.0898438 6.933594 -0.0898438 7.21875 -0.359375 C 7.503906 -0.632812 7.714844 -0.976562 7.863281 -1.414062 C 8 -1.835938 8.074219 -2.375 8.074219 -3.007812 C 8.074219 -3.429688 7.96875 -3.804688 7.789062 -4.136719 C 7.609375 -4.464844 7.339844 -4.75 6.976562 -4.960938 C 6.675781 -5.144531 6.347656 -5.292969 6 -5.382812 C 5.640625 -5.472656 5.308594 -5.578125 4.976562 -5.667969 C 4.632812 -5.746094 4.316406 -5.835938 4.015625 -5.925781 C 3.714844 -6.015625 3.472656 -6.136719 3.277344 -6.269531 C 3.039062 -6.421875 2.886719 -6.601562 2.796875 -6.796875 C 2.707031 -6.992188 2.660156 -7.234375 2.660156 -7.519531 C 2.660156 -7.941406 2.691406 -8.269531 2.78125 -8.542969 C 2.871094 -8.8125 3.007812 -9.023438 3.1875 -9.171875 C 3.367188 -9.324219 3.609375 -9.414062 3.910156 -9.472656 C 4.210938 -9.519531 4.570312 -9.546875 4.992188 -9.546875 C 5.261719 -9.546875 5.503906 -9.535156 5.714844 -9.503906 C 5.910156 -9.472656 6.074219 -9.429688 6.226562 -9.382812 C 6.359375 -9.324219 6.480469 -9.261719 6.585938 -9.1875 C 6.691406 -9.113281 6.796875 -9.039062 6.886719 -8.949219 L 7.144531 -8.691406 L 7.894531 -9.429688 L 7.640625 -9.683594 C 7.339844 -9.96875 6.992188 -10.195312 6.585938 -10.359375 C 6.179688 -10.511719 5.652344 -10.601562 4.992188 -10.601562 C 4.421875 -10.601562 3.925781 -10.542969 3.503906 -10.449219 C 3.082031 -10.347656 2.722656 -10.179688 2.449219 -9.941406 C 2.164062 -9.699219 1.953125 -9.382812 1.820312 -8.992188 C 1.667969 -8.601562 1.609375 -8.105469 1.609375 -7.519531 Z M 1.609375 -7.519531 "/></g></g></g><g fill="#000000" fill-opacity="1"><g transform="translate(206.724858, 215.071303)"><g><path d="M 1.203125 -5.097656 C 1.203125 -4.347656 1.25 -3.640625 1.339844 -2.976562 C 1.429688 -2.316406 1.625 -1.730469 1.910156 -1.234375 C 2.195312 -0.738281 2.601562 -0.347656 3.128906 -0.0585938 C 3.652344 0.242188 4.347656 0.375 5.21875 0.375 L 5.367188 0.375 C 6.226562 0.375 6.917969 0.242188 7.457031 -0.0585938 C 7.984375 -0.347656 8.390625 -0.738281 8.675781 -1.234375 C 8.960938 -1.730469 9.15625 -2.316406 9.25 -2.976562 C 9.339844 -3.640625 9.398438 -4.347656 9.398438 -5.097656 C 9.398438 -5.847656 9.339844 -6.570312 9.25 -7.234375 C 9.15625 -7.894531 8.960938 -8.480469 8.675781 -8.976562 C 8.375 -9.472656 7.96875 -9.863281 7.445312 -10.148438 C 6.917969 -10.4375 6.226562 -10.585938 5.351562 -10.585938 L 5.25 -10.585938 C 4.375 -10.585938 3.667969 -10.4375 3.144531 -10.148438 C 2.617188 -9.863281 2.210938 -9.472656 1.925781 -8.976562 C 1.625 -8.480469 1.429688 -7.894531 1.339844 -7.234375 C 1.25 -6.570312 1.203125 -5.847656 1.203125 -5.097656 Z M 2.253906 -5.097656 C 2.253906 -6.148438 2.332031 -6.992188 2.511719 -7.625 C 2.675781 -8.253906 2.949219 -8.707031 3.308594 -9.007812 C 3.503906 -9.171875 3.757812 -9.308594 4.074219 -9.398438 C 4.375 -9.488281 4.765625 -9.535156 5.21875 -9.535156 L 5.398438 -9.535156 C 5.847656 -9.535156 6.226562 -9.488281 6.527344 -9.398438 C 6.828125 -9.308594 7.082031 -9.171875 7.292969 -9.007812 C 7.652344 -8.707031 7.910156 -8.253906 8.089844 -7.625 C 8.253906 -6.992188 8.347656 -6.148438 8.347656 -5.097656 C 8.347656 -4.046875 8.253906 -3.203125 8.089844 -2.570312 C 7.910156 -1.941406 7.652344 -1.472656 7.292969 -1.1875 C 7.082031 -1.023438 6.828125 -0.902344 6.527344 -0.8125 C 6.210938 -0.722656 5.835938 -0.675781 5.382812 -0.675781 L 5.234375 -0.675781 C 4.765625 -0.675781 4.375 -0.722656 4.074219 -0.8125 C 3.757812 -0.902344 3.503906 -1.023438 3.308594 -1.1875 C 2.949219 -1.472656 2.675781 -1.941406 2.511719 -2.570312 C 2.332031 -3.203125 2.253906 -4.046875 2.253906 -5.097656 Z M 2.253906 -5.097656 "/></g></g></g><g fill="#000000" fill-opacity="1"><g transform="translate(217.309647, 215.071303)"><g><path d="M 1.203125 0.375 L 7.519531 0.375 L 7.519531 -0.675781 L 2.253906 -0.675781 L 2.253906 -10.601562 L 1.203125 -10.601562 Z M 1.203125 0.375 "/></g></g></g><g fill="#000000" fill-opacity="1"><g transform="translate(226.030067, 215.071303)"><g><path d="M 4.738281 0.375 C 5.324219 0.375 5.847656 0.285156 6.332031 0.0898438 C 6.796875 -0.0898438 7.203125 -0.347656 7.535156 -0.648438 C 7.863281 -0.949219 8.121094 -1.292969 8.300781 -1.683594 C 8.480469 -2.058594 8.570312 -2.4375 8.570312 -2.828125 L 8.570312 -10.617188 L 7.519531 -10.617188 L 7.519531 -2.828125 C 7.519531 -2.617188 7.457031 -2.375 7.339844 -2.136719 C 7.21875 -1.878906 7.050781 -1.640625 6.828125 -1.429688 C 6.585938 -1.21875 6.300781 -1.039062 5.953125 -0.886719 C 5.609375 -0.738281 5.203125 -0.675781 4.738281 -0.675781 C 4.347656 -0.675781 4 -0.738281 3.699219 -0.886719 C 3.398438 -1.023438 3.128906 -1.203125 2.917969 -1.414062 C 2.707031 -1.625 2.542969 -1.863281 2.421875 -2.121094 C 2.300781 -2.359375 2.253906 -2.601562 2.253906 -2.828125 L 2.253906 -10.617188 L 1.203125 -10.617188 L 1.203125 -2.828125 C 1.203125 -2.4375 1.277344 -2.058594 1.457031 -1.683594 C 1.625 -1.292969 1.863281 -0.949219 2.179688 -0.648438 C 2.480469 -0.347656 2.855469 -0.0898438 3.292969 0.0898438 C 3.730469 0.285156 4.210938 0.375 4.738281 0.375 Z M 4.738281 0.375 "/></g></g></g><g fill="#000000" fill-opacity="1"><g transform="translate(235.802954, 215.071303)"><g><path d="M 1.203125 -9.546875 L 4.660156 -9.546875 L 4.660156 0.375 L 5.714844 0.375 L 5.714844 -9.546875 L 9.171875 -9.546875 L 9.171875 -10.601562 L 1.203125 -10.601562 Z M 1.203125 -9.546875 "/></g></g></g><g fill="#000000" fill-opacity="1"><g transform="translate(246.177252, 215.071303)"><g><path d="M 1.203125 0.375 L 2.253906 0.375 L 2.253906 -10.601562 L 1.203125 -10.601562 Z M 1.203125 0.375 "/></g></g></g><g fill="#000000" fill-opacity="1"><g transform="translate(249.635347, 215.071303)"><g><path d="M 1.203125 -5.097656 C 1.203125 -4.347656 1.25 -3.640625 1.339844 -2.976562 C 1.429688 -2.316406 1.625 -1.730469 1.910156 -1.234375 C 2.195312 -0.738281 2.601562 -0.347656 3.128906 -0.0585938 C 3.652344 0.242188 4.347656 0.375 5.21875 0.375 L 5.367188 0.375 C 6.226562 0.375 6.917969 0.242188 7.457031 -0.0585938 C 7.984375 -0.347656 8.390625 -0.738281 8.675781 -1.234375 C 8.960938 -1.730469 9.15625 -2.316406 9.25 -2.976562 C 9.339844 -3.640625 9.398438 -4.347656 9.398438 -5.097656 C 9.398438 -5.847656 9.339844 -6.570312 9.25 -7.234375 C 9.15625 -7.894531 8.960938 -8.480469 8.675781 -8.976562 C 8.375 -9.472656 7.96875 -9.863281 7.445312 -10.148438 C 6.917969 -10.4375 6.226562 -10.585938 5.351562 -10.585938 L 5.25 -10.585938 C 4.375 -10.585938 3.667969 -10.4375 3.144531 -10.148438 C 2.617188 -9.863281 2.210938 -9.472656 1.925781 -8.976562 C 1.625 -8.480469 1.429688 -7.894531 1.339844 -7.234375 C 1.25 -6.570312 1.203125 -5.847656 1.203125 -5.097656 Z M 2.253906 -5.097656 C 2.253906 -6.148438 2.332031 -6.992188 2.511719 -7.625 C 2.675781 -8.253906 2.949219 -8.707031 3.308594 -9.007812 C 3.503906 -9.171875 3.757812 -9.308594 4.074219 -9.398438 C 4.375 -9.488281 4.765625 -9.535156 5.21875 -9.535156 L 5.398438 -9.535156 C 5.847656 -9.535156 6.226562 -9.488281 6.527344 -9.398438 C 6.828125 -9.308594 7.082031 -9.171875 7.292969 -9.007812 C 7.652344 -8.707031 7.910156 -8.253906 8.089844 -7.625 C 8.253906 -6.992188 8.347656 -6.148438 8.347656 -5.097656 C 8.347656 -4.046875 8.253906 -3.203125 8.089844 -2.570312 C 7.910156 -1.941406 7.652344 -1.472656 7.292969 -1.1875 C 7.082031 -1.023438 6.828125 -0.902344 6.527344 -0.8125 C 6.210938 -0.722656 5.835938 -0.675781 5.382812 -0.675781 L 5.234375 -0.675781 C 4.765625 -0.675781 4.375 -0.722656 4.074219 -0.8125 C 3.757812 -0.902344 3.503906 -1.023438 3.308594 -1.1875 C 2.949219 -1.472656 2.675781 -1.941406 2.511719 -2.570312 C 2.332031 -3.203125 2.253906 -4.046875 2.253906 -5.097656 Z M 2.253906 -5.097656 "/></g></g></g><g fill="#000000" fill-opacity="1"><g transform="translate(260.220136, 215.071303)"><g><path d="M 1.203125 -10.601562 L 1.203125 0.375 L 2.253906 0.375 L 2.253906 -8.300781 L 7.351562 0.375 L 8.269531 0.375 L 8.269531 -10.601562 L 7.21875 -10.601562 L 7.21875 -1.941406 L 2.121094 -10.601562 Z M 1.203125 -10.601562 "/></g></g></g><g fill="#000000" fill-opacity="1"><g transform="translate(269.692318, 215.071303)"><g><path d="M 1.609375 -7.519531 C 1.609375 -7.039062 1.683594 -6.632812 1.863281 -6.316406 C 2.03125 -5.984375 2.253906 -5.714844 2.542969 -5.503906 C 2.828125 -5.292969 3.15625 -5.113281 3.535156 -4.992188 C 3.910156 -4.855469 4.300781 -4.738281 4.722656 -4.648438 C 5.050781 -4.554688 5.382812 -4.464844 5.683594 -4.375 C 5.984375 -4.285156 6.226562 -4.179688 6.4375 -4.058594 C 6.648438 -3.925781 6.796875 -3.773438 6.886719 -3.625 C 6.976562 -3.457031 7.023438 -3.25 7.023438 -3.007812 C 7.023438 -2.527344 6.976562 -2.148438 6.902344 -1.851562 C 6.8125 -1.550781 6.675781 -1.308594 6.496094 -1.128906 C 6.316406 -0.949219 6.058594 -0.828125 5.746094 -0.765625 C 5.414062 -0.707031 5.023438 -0.675781 4.542969 -0.675781 C 3.894531 -0.675781 3.382812 -0.738281 2.992188 -0.871094 C 2.601562 -0.992188 2.347656 -1.128906 2.210938 -1.277344 L 1.953125 -1.535156 L 1.203125 -0.796875 L 1.472656 -0.527344 C 1.773438 -0.226562 2.179688 0 2.691406 0.148438 C 3.203125 0.300781 3.820312 0.375 4.542969 0.375 C 5.144531 0.375 5.667969 0.332031 6.121094 0.210938 C 6.570312 0.0898438 6.933594 -0.0898438 7.21875 -0.359375 C 7.503906 -0.632812 7.714844 -0.976562 7.863281 -1.414062 C 8 -1.835938 8.074219 -2.375 8.074219 -3.007812 C 8.074219 -3.429688 7.96875 -3.804688 7.789062 -4.136719 C 7.609375 -4.464844 7.339844 -4.75 6.976562 -4.960938 C 6.675781 -5.144531 6.347656 -5.292969 6 -5.382812 C 5.640625 -5.472656 5.308594 -5.578125 4.976562 -5.667969 C 4.632812 -5.746094 4.316406 -5.835938 4.015625 -5.925781 C 3.714844 -6.015625 3.472656 -6.136719 3.277344 -6.269531 C 3.039062 -6.421875 2.886719 -6.601562 2.796875 -6.796875 C 2.707031 -6.992188 2.660156 -7.234375 2.660156 -7.519531 C 2.660156 -7.941406 2.691406 -8.269531 2.78125 -8.542969 C 2.871094 -8.8125 3.007812 -9.023438 3.1875 -9.171875 C 3.367188 -9.324219 3.609375 -9.414062 3.910156 -9.472656 C 4.210938 -9.519531 4.570312 -9.546875 4.992188 -9.546875 C 5.261719 -9.546875 5.503906 -9.535156 5.714844 -9.503906 C 5.910156 -9.472656 6.074219 -9.429688 6.226562 -9.382812 C 6.359375 -9.324219 6.480469 -9.261719 6.585938 -9.1875 C 6.691406 -9.113281 6.796875 -9.039062 6.886719 -8.949219 L 7.144531 -8.691406 L 7.894531 -9.429688 L 7.640625 -9.683594 C 7.339844 -9.96875 6.992188 -10.195312 6.585938 -10.359375 C 6.179688 -10.511719 5.652344 -10.601562 4.992188 -10.601562 C 4.421875 -10.601562 3.925781 -10.542969 3.503906 -10.449219 C 3.082031 -10.347656 2.722656 -10.179688 2.449219 -9.941406 C 2.164062 -9.699219 1.953125 -9.382812 1.820312 -8.992188 C 1.667969 -8.601562 1.609375 -8.105469 1.609375 -7.519531 Z M 1.609375 -7.519531 "/></g></g></g><g fill="#000000" fill-opacity="1"><g transform="translate(278.969047, 215.071303)"><g><path d="M 1.503906 -7.757812 L 0.75 -7.023438 L 2.75 -5.023438 L 0.75 -3.023438 L 1.503906 -2.285156 L 3.984375 -4.765625 L 3.96875 -5.277344 Z M 1.503906 -7.757812 "/></g></g></g></svg>