<svg xmlns="http://www.w3.org/2000/svg" xmlns:xlink="http://www.w3.org/1999/xlink" width="115" zoomAndPan="magnify" viewBox="0 0 86.25 44.999999" height="60" preserveAspectRatio="xMidYMid meet" version="1.0"><defs><g/><clipPath id="ae2cf26bee"><path d="M 0.574219 11.796875 L 51 11.796875 L 51 30.136719 L 0.574219 30.136719 Z M 0.574219 11.796875 " clip-rule="nonzero"/></clipPath><clipPath id="becf7c790d"><path d="M 12.347656 11.796875 L 50.128906 11.796875 C 50.433594 11.796875 50.714844 11.960938 50.863281 12.226562 C 51.015625 12.488281 51.011719 12.816406 50.855469 13.078125 L 41.511719 28.859375 C 41.042969 29.652344 40.1875 30.136719 39.265625 30.136719 L 1.488281 30.136719 C 1.183594 30.136719 0.902344 29.976562 0.75 29.710938 C 0.601562 29.445312 0.601562 29.121094 0.757812 28.859375 L 10.101562 13.078125 C 10.574219 12.285156 11.425781 11.796875 12.347656 11.796875 Z M 12.347656 11.796875 " clip-rule="nonzero"/></clipPath></defs><g clip-path="url(#ae2cf26bee)"><g clip-path="url(#becf7c790d)"><path fill="#fbd016" d="M 0 11.796875 L 51.582031 11.796875 L 51.582031 30.136719 L 0 30.136719 Z M 0 11.796875 " fill-opacity="1" fill-rule="nonzero"/></g></g><g fill="#fdfefd" fill-opacity="1"><g transform="translate(4.662653, 27.051634)"><g><path d="M 6.15625 -10.90625 C 6.957031 -10.90625 7.742188 -10.738281 8.515625 -10.40625 C 9.296875 -10.082031 9.960938 -9.644531 10.515625 -9.09375 L 8.921875 -7.203125 C 8.566406 -7.628906 8.144531 -7.96875 7.65625 -8.21875 C 7.164062 -8.476562 6.679688 -8.609375 6.203125 -8.609375 C 5.347656 -8.609375 4.628906 -8.304688 4.046875 -7.703125 C 3.472656 -7.097656 3.1875 -6.351562 3.1875 -5.46875 C 3.1875 -4.5625 3.472656 -3.800781 4.046875 -3.1875 C 4.628906 -2.582031 5.347656 -2.28125 6.203125 -2.28125 C 6.648438 -2.28125 7.117188 -2.394531 7.609375 -2.625 C 8.097656 -2.851562 8.535156 -3.160156 8.921875 -3.546875 L 10.53125 -1.859375 C 9.9375 -1.253906 9.238281 -0.769531 8.4375 -0.40625 C 7.644531 -0.0507812 6.851562 0.125 6.0625 0.125 C 4.425781 0.125 3.066406 -0.40625 1.984375 -1.46875 C 0.910156 -2.53125 0.375 -3.851562 0.375 -5.4375 C 0.375 -6.988281 0.921875 -8.285156 2.015625 -9.328125 C 3.117188 -10.378906 4.5 -10.90625 6.15625 -10.90625 Z M 6.15625 -10.90625 "/></g></g></g><g fill="#fdfefd" fill-opacity="1"><g transform="translate(14.470477, 27.051634)"><g><path d="M 4.921875 -8.421875 C 6.285156 -8.421875 7.382812 -8.03125 8.21875 -7.25 C 9.050781 -6.476562 9.46875 -5.453125 9.46875 -4.171875 C 9.46875 -2.890625 9.050781 -1.859375 8.21875 -1.078125 C 7.382812 -0.296875 6.285156 0.09375 4.921875 0.09375 C 3.554688 0.09375 2.457031 -0.296875 1.625 -1.078125 C 0.789062 -1.859375 0.375 -2.890625 0.375 -4.171875 C 0.375 -5.453125 0.789062 -6.476562 1.625 -7.25 C 2.457031 -8.03125 3.554688 -8.421875 4.921875 -8.421875 Z M 4.921875 -6.3125 C 4.367188 -6.3125 3.921875 -6.109375 3.578125 -5.703125 C 3.234375 -5.296875 3.0625 -4.773438 3.0625 -4.140625 C 3.0625 -3.492188 3.234375 -2.972656 3.578125 -2.578125 C 3.921875 -2.179688 4.367188 -1.984375 4.921875 -1.984375 C 5.472656 -1.984375 5.921875 -2.179688 6.265625 -2.578125 C 6.609375 -2.972656 6.78125 -3.492188 6.78125 -4.140625 C 6.78125 -4.773438 6.609375 -5.296875 6.265625 -5.703125 C 5.921875 -6.109375 5.472656 -6.3125 4.921875 -6.3125 Z M 4.921875 -6.3125 "/></g></g></g><g fill="#fdfefd" fill-opacity="1"><g transform="translate(23.428796, 27.051634)"><g><path d="M 4.8125 -8.453125 C 5.945312 -8.453125 6.832031 -8.1875 7.46875 -7.65625 C 8.101562 -7.125 8.425781 -6.382812 8.4375 -5.4375 L 8.4375 0 L 5.828125 0 L 5.828125 -0.953125 C 5.273438 -0.234375 4.425781 0.125 3.28125 0.125 C 2.40625 0.125 1.707031 -0.113281 1.1875 -0.59375 C 0.675781 -1.082031 0.421875 -1.710938 0.421875 -2.484375 C 0.421875 -3.273438 0.695312 -3.890625 1.25 -4.328125 C 1.800781 -4.765625 2.585938 -4.988281 3.609375 -5 L 5.8125 -5 L 5.8125 -5.125 C 5.8125 -5.539062 5.671875 -5.863281 5.390625 -6.09375 C 5.117188 -6.320312 4.71875 -6.4375 4.1875 -6.4375 C 3.4375 -6.4375 2.609375 -6.207031 1.703125 -5.75 L 0.9375 -7.515625 C 2.289062 -8.140625 3.582031 -8.453125 4.8125 -8.453125 Z M 4.09375 -1.6875 C 4.519531 -1.6875 4.890625 -1.789062 5.203125 -2 C 5.523438 -2.207031 5.726562 -2.484375 5.8125 -2.828125 L 5.8125 -3.5625 L 4.125 -3.5625 C 3.320312 -3.5625 2.921875 -3.265625 2.921875 -2.671875 C 2.921875 -2.359375 3.019531 -2.113281 3.21875 -1.9375 C 3.425781 -1.769531 3.71875 -1.6875 4.09375 -1.6875 Z M 4.09375 -1.6875 "/></g></g></g><g fill="#fdfefd" fill-opacity="1"><g transform="translate(31.815631, 27.051634)"><g><path d="M 4.046875 -8.453125 C 5.273438 -8.453125 6.421875 -8.140625 7.484375 -7.515625 L 6.5625 -5.78125 C 5.53125 -6.332031 4.65625 -6.609375 3.9375 -6.609375 C 3.394531 -6.609375 3.125 -6.421875 3.125 -6.046875 C 3.125 -5.835938 3.269531 -5.660156 3.5625 -5.515625 C 3.863281 -5.378906 4.226562 -5.253906 4.65625 -5.140625 C 5.09375 -5.023438 5.523438 -4.882812 5.953125 -4.71875 C 6.378906 -4.550781 6.742188 -4.28125 7.046875 -3.90625 C 7.347656 -3.539062 7.5 -3.085938 7.5 -2.546875 C 7.5 -1.710938 7.171875 -1.0625 6.515625 -0.59375 C 5.867188 -0.125 5.023438 0.109375 3.984375 0.109375 C 2.515625 0.109375 1.269531 -0.28125 0.25 -1.0625 L 1.09375 -2.765625 C 2.070312 -2.078125 3.054688 -1.734375 4.046875 -1.734375 C 4.648438 -1.734375 4.953125 -1.921875 4.953125 -2.296875 C 4.953125 -2.515625 4.804688 -2.695312 4.515625 -2.84375 C 4.222656 -2.988281 3.863281 -3.117188 3.4375 -3.234375 C 3.019531 -3.347656 2.597656 -3.488281 2.171875 -3.65625 C 1.753906 -3.820312 1.398438 -4.082031 1.109375 -4.4375 C 0.816406 -4.800781 0.671875 -5.257812 0.671875 -5.8125 C 0.671875 -6.644531 0.984375 -7.289062 1.609375 -7.75 C 2.234375 -8.21875 3.046875 -8.453125 4.046875 -8.453125 Z M 4.046875 -8.453125 "/></g></g></g><g fill="#fdfefd" fill-opacity="1"><g transform="translate(38.858706, 27.051634)"><g><path d="M 5.921875 -2.296875 L 6.4375 -0.453125 C 5.789062 -0.0664062 5.050781 0.125 4.21875 0.125 C 3.394531 0.125 2.726562 -0.101562 2.21875 -0.5625 C 1.707031 -1.019531 1.453125 -1.671875 1.453125 -2.515625 L 1.453125 -6.203125 L 0.296875 -6.203125 L 0.296875 -7.9375 L 1.453125 -7.9375 L 1.453125 -10.265625 L 4.109375 -10.265625 L 4.109375 -7.953125 L 6.296875 -7.953125 L 6.296875 -6.203125 L 4.109375 -6.203125 L 4.109375 -2.9375 C 4.109375 -2.613281 4.171875 -2.378906 4.296875 -2.234375 C 4.429688 -2.085938 4.628906 -2.019531 4.890625 -2.03125 C 5.128906 -2.03125 5.472656 -2.117188 5.921875 -2.296875 Z M 5.921875 -2.296875 "/></g></g></g><g fill="#ce1126" fill-opacity="1"><g transform="translate(47.94342, 27.051634)"><g><path d="M 5.921875 -2.296875 L 6.4375 -0.453125 C 5.789062 -0.0664062 5.050781 0.125 4.21875 0.125 C 3.394531 0.125 2.726562 -0.101562 2.21875 -0.5625 C 1.707031 -1.019531 1.453125 -1.671875 1.453125 -2.515625 L 1.453125 -6.203125 L 0.296875 -6.203125 L 0.296875 -7.9375 L 1.453125 -7.9375 L 1.453125 -10.265625 L 4.109375 -10.265625 L 4.109375 -7.953125 L 6.296875 -7.953125 L 6.296875 -6.203125 L 4.109375 -6.203125 L 4.109375 -2.9375 C 4.109375 -2.613281 4.171875 -2.378906 4.296875 -2.234375 C 4.429688 -2.085938 4.628906 -2.019531 4.890625 -2.03125 C 5.128906 -2.03125 5.472656 -2.117188 5.921875 -2.296875 Z M 5.921875 -2.296875 "/></g></g></g><g fill="#ce1126" fill-opacity="1"><g transform="translate(53.781742, 27.051634)"><g><path d="M 4.71875 -8.421875 C 6.15625 -8.421875 7.238281 -7.976562 7.96875 -7.09375 C 8.695312 -6.207031 9.015625 -4.992188 8.921875 -3.453125 L 3.0625 -3.453125 C 3.195312 -2.953125 3.429688 -2.566406 3.765625 -2.296875 C 4.109375 -2.035156 4.523438 -1.90625 5.015625 -1.90625 C 5.785156 -1.90625 6.453125 -2.1875 7.015625 -2.75 L 8.421875 -1.375 C 7.523438 -0.394531 6.316406 0.09375 4.796875 0.09375 C 3.441406 0.09375 2.363281 -0.289062 1.5625 -1.0625 C 0.769531 -1.832031 0.375 -2.859375 0.375 -4.140625 C 0.375 -5.429688 0.769531 -6.46875 1.5625 -7.25 C 2.363281 -8.03125 3.414062 -8.421875 4.71875 -8.421875 Z M 3.015625 -4.890625 L 6.34375 -4.890625 C 6.34375 -5.390625 6.195312 -5.789062 5.90625 -6.09375 C 5.613281 -6.40625 5.226562 -6.5625 4.75 -6.5625 C 4.289062 -6.5625 3.90625 -6.410156 3.59375 -6.109375 C 3.289062 -5.804688 3.097656 -5.398438 3.015625 -4.890625 Z M 3.015625 -4.890625 "/></g></g></g><g fill="#ce1126" fill-opacity="1"><g transform="translate(62.19947, 27.051634)"><g><path d="M 4.703125 -8.421875 C 5.523438 -8.421875 6.253906 -8.257812 6.890625 -7.9375 C 7.535156 -7.613281 8.039062 -7.148438 8.40625 -6.546875 L 6.484375 -5.390625 C 6.078125 -5.972656 5.519531 -6.265625 4.8125 -6.265625 C 4.289062 -6.265625 3.867188 -6.066406 3.546875 -5.671875 C 3.222656 -5.285156 3.0625 -4.78125 3.0625 -4.15625 C 3.0625 -3.519531 3.21875 -3.007812 3.53125 -2.625 C 3.851562 -2.238281 4.28125 -2.046875 4.8125 -2.046875 C 5.59375 -2.046875 6.15625 -2.359375 6.5 -2.984375 L 8.453125 -1.84375 C 8.109375 -1.21875 7.609375 -0.738281 6.953125 -0.40625 C 6.304688 -0.0703125 5.546875 0.09375 4.671875 0.09375 C 3.378906 0.09375 2.335938 -0.289062 1.546875 -1.0625 C 0.765625 -1.84375 0.375 -2.867188 0.375 -4.140625 C 0.375 -5.421875 0.769531 -6.453125 1.5625 -7.234375 C 2.363281 -8.023438 3.410156 -8.421875 4.703125 -8.421875 Z M 4.703125 -8.421875 "/></g></g></g><g fill="#ce1126" fill-opacity="1"><g transform="translate(69.999374, 27.051634)"><g><path d="M 6.609375 -8.453125 C 7.523438 -8.453125 8.257812 -8.160156 8.8125 -7.578125 C 9.375 -6.992188 9.65625 -6.21875 9.65625 -5.25 L 9.65625 0 L 6.984375 0 L 6.984375 -4.515625 C 6.984375 -4.992188 6.851562 -5.375 6.59375 -5.65625 C 6.332031 -5.945312 5.972656 -6.09375 5.515625 -6.09375 C 5.003906 -6.09375 4.59375 -5.90625 4.28125 -5.53125 C 3.96875 -5.15625 3.8125 -4.679688 3.8125 -4.109375 L 3.8125 0 L 1.140625 0 L 1.140625 -11.46875 L 3.8125 -11.46875 L 3.8125 -6.953125 C 4.40625 -7.929688 5.335938 -8.429688 6.609375 -8.453125 Z M 6.609375 -8.453125 "/></g></g></g><g fill="#000000" fill-opacity="1"><g transform="translate(49.353329, 33.730439)"><g><path d="M 2.4375 -2.484375 L 0.59375 -1.71875 L 2.4375 -0.9375 L 2.4375 -0.46875 L 0.1875 -1.453125 L 0.1875 -1.984375 L 2.4375 -2.953125 Z M 2.4375 -2.484375 "/></g></g></g><g fill="#000000" fill-opacity="1"><g transform="translate(51.973074, 33.730439)"><g><path d="M 0.40625 0.609375 L -0.109375 0.609375 L 1.5625 -4.296875 L 2.078125 -4.296875 Z M 0.40625 0.609375 "/></g></g></g><g fill="#000000" fill-opacity="1"><g transform="translate(53.71431, 33.730439)"><g><path d="M 1.703125 -3.71875 C 2.171875 -3.71875 2.597656 -3.585938 2.984375 -3.328125 L 2.734375 -2.78125 C 2.359375 -3.007812 1.992188 -3.125 1.640625 -3.125 C 1.460938 -3.125 1.316406 -3.085938 1.203125 -3.015625 C 1.097656 -2.953125 1.046875 -2.859375 1.046875 -2.734375 C 1.046875 -2.617188 1.09375 -2.515625 1.1875 -2.421875 C 1.289062 -2.335938 1.414062 -2.273438 1.5625 -2.234375 C 1.707031 -2.203125 1.863281 -2.15625 2.03125 -2.09375 C 2.207031 -2.03125 2.367188 -1.960938 2.515625 -1.890625 C 2.671875 -1.828125 2.796875 -1.722656 2.890625 -1.578125 C 2.984375 -1.429688 3.03125 -1.253906 3.03125 -1.046875 C 3.03125 -0.722656 2.898438 -0.460938 2.640625 -0.265625 C 2.390625 -0.078125 2.054688 0.015625 1.640625 0.015625 C 1.359375 0.015625 1.085938 -0.0351562 0.828125 -0.140625 C 0.566406 -0.242188 0.335938 -0.382812 0.140625 -0.5625 L 0.40625 -1.09375 C 0.59375 -0.925781 0.796875 -0.796875 1.015625 -0.703125 C 1.242188 -0.609375 1.457031 -0.5625 1.65625 -0.5625 C 1.875 -0.5625 2.039062 -0.597656 2.15625 -0.671875 C 2.28125 -0.753906 2.34375 -0.867188 2.34375 -1.015625 C 2.34375 -1.140625 2.289062 -1.242188 2.1875 -1.328125 C 2.09375 -1.410156 1.972656 -1.472656 1.828125 -1.515625 C 1.679688 -1.554688 1.519531 -1.601562 1.34375 -1.65625 C 1.175781 -1.71875 1.015625 -1.78125 0.859375 -1.84375 C 0.710938 -1.914062 0.59375 -2.019531 0.5 -2.15625 C 0.40625 -2.300781 0.359375 -2.476562 0.359375 -2.6875 C 0.359375 -3 0.476562 -3.25 0.71875 -3.4375 C 0.96875 -3.625 1.296875 -3.71875 1.703125 -3.71875 Z M 1.703125 -3.71875 "/></g></g></g><g fill="#000000" fill-opacity="1"><g transform="translate(56.986359, 33.730439)"><g><path d="M 1.640625 -2.828125 C 2.078125 -2.828125 2.429688 -2.691406 2.703125 -2.421875 C 2.972656 -2.160156 3.109375 -1.820312 3.109375 -1.40625 C 3.109375 -0.976562 2.972656 -0.632812 2.703125 -0.375 C 2.429688 -0.113281 2.078125 0.015625 1.640625 0.015625 C 1.210938 0.015625 0.863281 -0.113281 0.59375 -0.375 C 0.320312 -0.632812 0.1875 -0.976562 0.1875 -1.40625 C 0.1875 -1.820312 0.320312 -2.160156 0.59375 -2.421875 C 0.863281 -2.691406 1.210938 -2.828125 1.640625 -2.828125 Z M 1.640625 -2.296875 C 1.390625 -2.296875 1.1875 -2.210938 1.03125 -2.046875 C 0.875 -1.878906 0.796875 -1.660156 0.796875 -1.390625 C 0.796875 -1.117188 0.875 -0.898438 1.03125 -0.734375 C 1.1875 -0.566406 1.390625 -0.484375 1.640625 -0.484375 C 1.898438 -0.484375 2.109375 -0.566406 2.265625 -0.734375 C 2.421875 -0.898438 2.5 -1.117188 2.5 -1.390625 C 2.5 -1.660156 2.414062 -1.878906 2.25 -2.046875 C 2.09375 -2.210938 1.890625 -2.296875 1.640625 -2.296875 Z M 1.640625 -2.296875 "/></g></g></g><g fill="#000000" fill-opacity="1"><g transform="translate(60.274187, 33.730439)"><g><path d="M 1.078125 0 L 0.46875 0 L 0.46875 -3.90625 L 1.078125 -3.90625 Z M 1.078125 0 "/></g></g></g><g fill="#000000" fill-opacity="1"><g transform="translate(61.826042, 33.730439)"><g><path d="M 2.984375 -2.796875 L 2.984375 0 L 2.390625 0 L 2.390625 -0.546875 C 2.203125 -0.171875 1.867188 0.015625 1.390625 0.015625 C 1.066406 0.015625 0.8125 -0.078125 0.625 -0.265625 C 0.445312 -0.460938 0.359375 -0.726562 0.359375 -1.0625 L 0.359375 -2.796875 L 0.96875 -2.796875 L 0.96875 -1.234375 C 0.96875 -1.015625 1.023438 -0.84375 1.140625 -0.71875 C 1.253906 -0.601562 1.410156 -0.546875 1.609375 -0.546875 C 1.847656 -0.546875 2.035156 -0.628906 2.171875 -0.796875 C 2.316406 -0.960938 2.390625 -1.171875 2.390625 -1.421875 L 2.390625 -2.796875 Z M 2.984375 -2.796875 "/></g></g></g><g fill="#000000" fill-opacity="1"><g transform="translate(65.26117, 33.730439)"><g><path d="M 1.875 -0.640625 L 2.03125 -0.171875 C 1.800781 -0.0351562 1.570312 0.03125 1.34375 0.03125 C 1.113281 0.03125 0.925781 -0.0351562 0.78125 -0.171875 C 0.632812 -0.316406 0.5625 -0.523438 0.5625 -0.796875 L 0.5625 -2.25 L 0.15625 -2.25 L 0.15625 -2.703125 L 0.5625 -2.703125 L 0.5625 -3.46875 L 1.15625 -3.46875 L 1.15625 -2.703125 L 1.984375 -2.703125 L 1.984375 -2.25 L 1.15625 -2.25 L 1.15625 -0.90625 C 1.15625 -0.757812 1.179688 -0.65625 1.234375 -0.59375 C 1.285156 -0.539062 1.359375 -0.515625 1.453125 -0.515625 C 1.566406 -0.515625 1.707031 -0.554688 1.875 -0.640625 Z M 1.875 -0.640625 "/></g></g></g><g fill="#000000" fill-opacity="1"><g transform="translate(67.402205, 33.730439)"><g><path d="M 0.484375 -3.859375 C 0.554688 -3.929688 0.644531 -3.96875 0.75 -3.96875 C 0.851562 -3.96875 0.9375 -3.929688 1 -3.859375 C 1.0625 -3.796875 1.09375 -3.710938 1.09375 -3.609375 C 1.09375 -3.492188 1.0625 -3.398438 1 -3.328125 C 0.9375 -3.265625 0.851562 -3.234375 0.75 -3.234375 C 0.644531 -3.234375 0.554688 -3.265625 0.484375 -3.328125 C 0.421875 -3.398438 0.390625 -3.492188 0.390625 -3.609375 C 0.390625 -3.710938 0.421875 -3.796875 0.484375 -3.859375 Z M 1.046875 0 L 0.453125 0 L 0.453125 -2.796875 L 1.046875 -2.796875 Z M 1.046875 0 "/></g></g></g><g fill="#000000" fill-opacity="1"><g transform="translate(68.896194, 33.730439)"><g><path d="M 1.640625 -2.828125 C 2.078125 -2.828125 2.429688 -2.691406 2.703125 -2.421875 C 2.972656 -2.160156 3.109375 -1.820312 3.109375 -1.40625 C 3.109375 -0.976562 2.972656 -0.632812 2.703125 -0.375 C 2.429688 -0.113281 2.078125 0.015625 1.640625 0.015625 C 1.210938 0.015625 0.863281 -0.113281 0.59375 -0.375 C 0.320312 -0.632812 0.1875 -0.976562 0.1875 -1.40625 C 0.1875 -1.820312 0.320312 -2.160156 0.59375 -2.421875 C 0.863281 -2.691406 1.210938 -2.828125 1.640625 -2.828125 Z M 1.640625 -2.296875 C 1.390625 -2.296875 1.1875 -2.210938 1.03125 -2.046875 C 0.875 -1.878906 0.796875 -1.660156 0.796875 -1.390625 C 0.796875 -1.117188 0.875 -0.898438 1.03125 -0.734375 C 1.1875 -0.566406 1.390625 -0.484375 1.640625 -0.484375 C 1.898438 -0.484375 2.109375 -0.566406 2.265625 -0.734375 C 2.421875 -0.898438 2.5 -1.117188 2.5 -1.390625 C 2.5 -1.660156 2.414062 -1.878906 2.25 -2.046875 C 2.09375 -2.210938 1.890625 -2.296875 1.640625 -2.296875 Z M 1.640625 -2.296875 "/></g></g></g><g fill="#000000" fill-opacity="1"><g transform="translate(72.184022, 33.730439)"><g><path d="M 2.078125 -2.828125 C 2.410156 -2.828125 2.664062 -2.726562 2.84375 -2.53125 C 3.03125 -2.34375 3.125 -2.082031 3.125 -1.75 L 3.125 0 L 2.515625 0 L 2.515625 -1.578125 C 2.515625 -1.785156 2.457031 -1.945312 2.34375 -2.0625 C 2.226562 -2.1875 2.0625 -2.25 1.84375 -2.25 C 1.625 -2.25 1.441406 -2.175781 1.296875 -2.03125 C 1.148438 -1.894531 1.066406 -1.710938 1.046875 -1.484375 L 1.046875 0 L 0.453125 0 L 0.453125 -2.796875 L 1.046875 -2.796875 L 1.046875 -2.265625 C 1.242188 -2.640625 1.585938 -2.828125 2.078125 -2.828125 Z M 2.078125 -2.828125 "/></g></g></g><g fill="#000000" fill-opacity="1"><g transform="translate(75.671752, 33.730439)"><g><path d="M 1.28125 -2.828125 C 1.664062 -2.828125 1.992188 -2.734375 2.265625 -2.546875 L 2.046875 -2.09375 C 1.773438 -2.257812 1.503906 -2.34375 1.234375 -2.34375 C 0.960938 -2.34375 0.828125 -2.25 0.828125 -2.0625 C 0.828125 -1.96875 0.875 -1.890625 0.96875 -1.828125 C 1.070312 -1.773438 1.195312 -1.726562 1.34375 -1.6875 C 1.488281 -1.644531 1.632812 -1.597656 1.78125 -1.546875 C 1.925781 -1.492188 2.050781 -1.40625 2.15625 -1.28125 C 2.257812 -1.15625 2.3125 -1 2.3125 -0.8125 C 2.3125 -0.539062 2.207031 -0.332031 2 -0.1875 C 1.800781 -0.0507812 1.546875 0.015625 1.234375 0.015625 C 1.023438 0.015625 0.816406 -0.015625 0.609375 -0.078125 C 0.410156 -0.148438 0.242188 -0.25 0.109375 -0.375 L 0.328125 -0.796875 C 0.441406 -0.691406 0.585938 -0.609375 0.765625 -0.546875 C 0.941406 -0.484375 1.109375 -0.453125 1.265625 -0.453125 C 1.398438 -0.453125 1.507812 -0.472656 1.59375 -0.515625 C 1.675781 -0.566406 1.71875 -0.644531 1.71875 -0.75 C 1.71875 -0.851562 1.664062 -0.9375 1.5625 -1 C 1.46875 -1.0625 1.347656 -1.113281 1.203125 -1.15625 C 1.054688 -1.195312 0.910156 -1.242188 0.765625 -1.296875 C 0.617188 -1.347656 0.492188 -1.429688 0.390625 -1.546875 C 0.296875 -1.671875 0.25 -1.828125 0.25 -2.015625 C 0.25 -2.285156 0.347656 -2.488281 0.546875 -2.625 C 0.742188 -2.757812 0.988281 -2.828125 1.28125 -2.828125 Z M 1.28125 -2.828125 "/></g></g></g><g fill="#000000" fill-opacity="1"><g transform="translate(78.144203, 33.730439)"><g><path d="M 0.1875 -0.96875 L 2.03125 -1.734375 L 0.1875 -2.515625 L 0.1875 -2.984375 L 2.4375 -2 L 2.4375 -1.46875 L 0.1875 -0.5 Z M 0.1875 -0.96875 "/></g></g></g></svg>